<?xml version="1.0" encoding="UTF-8"?>
<svg version="1.1" xmlns="http://www.w3.org/2000/svg" width="512" height="512">
<path d="M0 0 C7.59048487 5.47989779 11.64325972 11.74227915 14.58203125 20.55859375 C14.58203125 26.49859375 14.58203125 32.43859375 14.58203125 38.55859375 C63.75203125 38.55859375 112.92203125 38.55859375 163.58203125 38.55859375 C163.58203125 32.94859375 163.58203125 27.33859375 163.58203125 21.55859375 C164.75328455 17.5493036 165.5697166 14.99839411 167.58203125 11.55859375 C167.99453125 10.84316406 168.40703125 10.12773437 168.83203125 9.390625 C173.2633691 2.68067308 179.9467127 -1.6038596 187.64453125 -3.81640625 C197.46799574 -5.37568633 206.50829891 -4.62107462 214.83203125 1.30859375 C222.26930573 7.39363651 227.0861697 13.88988862 228.58203125 23.55859375 C228.64977269 26.17341333 228.67703383 28.75838631 228.64453125 31.37109375 C228.64001953 32.06396484 228.63550781 32.75683594 228.63085938 33.47070312 C228.61916281 35.16670443 228.60123049 36.86266078 228.58203125 38.55859375 C229.72567139 38.53764648 230.86931152 38.51669922 232.04760742 38.49511719 C236.35086198 38.42190529 240.65406328 38.3765034 244.95776367 38.33886719 C246.80909528 38.31893447 248.66036546 38.29177807 250.51147461 38.25683594 C268.70203913 37.92243248 284.82596835 40.61995395 298.58203125 53.55859375 C308.42574478 64.51032724 313.82508513 76.72769688 313.63931274 91.46188354 C313.63366723 92.25186489 313.62802172 93.04184624 313.62220514 93.85576642 C313.60929732 95.58418009 313.59404107 97.31257742 313.57673836 99.04095268 C313.53881683 102.84060957 313.51235052 106.64032486 313.48501945 110.44007039 C313.47018354 112.48632519 313.45475228 114.53257574 313.43876863 116.5788219 C313.33783184 129.72306932 313.31370845 142.86756391 313.28564572 156.01213431 C313.25781853 168.80491392 313.20607393 181.59646454 313.078125 194.38867188 C312.97657443 204.55577821 312.92842344 214.72156546 312.94234121 224.88919175 C312.94775378 230.26478243 312.92693888 235.6372872 312.84144974 241.01226425 C312.76154645 246.07799967 312.75316308 251.13903879 312.79730797 256.20516396 C312.80117154 258.0534405 312.77984092 259.90198824 312.73003197 261.74959755 C312.5272455 269.73035083 312.4826761 276.5298077 317.84934616 282.85565567 C320.96162859 286.1122497 324.31768753 289.01521028 327.76494479 291.90805459 C346.87379121 309.26545614 355.56999672 340.2587808 356.86328125 365.08984375 C357.86331886 396.92437446 346.36845909 426.95342536 324.78125 450.2265625 C324.05550781 450.99613281 323.32976562 451.76570313 322.58203125 452.55859375 C321.96972656 453.23535156 321.35742188 453.91210938 320.7265625 454.609375 C304.55893587 471.81117817 279.8595273 483.36932828 256.58203125 486.55859375 C255.46441406 486.72294922 255.46441406 486.72294922 254.32421875 486.890625 C224.02403021 490.64064833 192.12356572 482.90264236 167.58203125 464.55859375 C164.08629696 461.70357458 160.78234786 458.66062164 157.546875 455.515625 C157.09103446 455.07337562 156.63519393 454.63112624 156.16554004 454.17547536 C154.58203125 452.55859375 154.58203125 452.55859375 153.10431689 450.76879001 C150.04553427 447.24362456 147.80292276 445.14185149 143.05289936 444.69002151 C141.31008962 444.65740932 139.56630218 444.66286692 137.82356262 444.69903564 C136.85824653 444.69108782 135.89293043 444.68313999 134.89836234 444.67495131 C131.67202759 444.65677253 128.44812839 444.68835089 125.22192383 444.71972656 C122.90540995 444.71674898 120.58889829 444.71065334 118.2723999 444.70167542 C113.28710457 444.68904362 108.30250975 444.69845716 103.31727028 444.72498322 C95.42871014 444.76681562 87.54065457 444.759684 79.65202332 444.74603271 C68.58653617 444.73095126 57.52127009 444.74029257 46.45581055 444.76806641 C35.0905743 444.79649008 23.72537767 444.81883766 12.36010742 444.82763672 C11.66081337 444.828185 10.96151932 444.82873328 10.24103455 444.82929817 C2.59553807 444.83494052 -5.04994925 444.83680925 -12.69544697 444.83289719 C-13.36881361 444.83255363 -14.04218025 444.83221008 -14.73595193 444.83185612 C-17.42909545 444.83039666 -20.1222387 444.82884229 -22.8153818 444.8267487 C-31.31650266 444.82015664 -39.81732714 444.83095165 -48.31839883 444.86030531 C-53.20280365 444.8746206 -58.08716467 444.87685725 -62.97158813 444.87626457 C-65.22898338 444.87863942 -67.4863803 444.88617374 -69.74373817 444.89937782 C-89.60068458 445.01153099 -105.03629855 443.27860503 -120.12890625 428.9765625 C-132.51184828 415.89628756 -135.73175712 401.17509814 -135.68539429 383.65022278 C-135.6899254 382.38227723 -135.69445651 381.11433169 -135.69912493 379.80796355 C-135.71128107 376.31360018 -135.71110326 372.81933308 -135.70873618 369.32495344 C-135.70832613 365.54633277 -135.71938505 361.76774219 -135.72885132 357.98913574 C-135.74542181 350.59530954 -135.75095908 343.20151523 -135.75207607 335.807672 C-135.75302845 329.79354175 -135.7571482 323.77942197 -135.76347733 317.76529503 C-135.78107915 300.69038481 -135.79031788 283.61549967 -135.78881638 266.54058031 C-135.78873647 265.62121957 -135.78865655 264.70185883 -135.78857422 263.75463867 C-135.78849246 262.83414715 -135.7884107 261.91365563 -135.78832646 260.96527042 C-135.78751392 246.05448641 -135.80664633 231.1438035 -135.83485095 216.23304871 C-135.86362495 200.89951425 -135.87738876 185.56602901 -135.8756634 170.23246688 C-135.87500105 161.63320911 -135.88042534 153.03405734 -135.9020195 144.43482399 C-135.92029088 137.11222811 -135.92453001 129.78978626 -135.91100065 122.46717737 C-135.90450081 118.73662586 -135.90424457 115.00636935 -135.92170715 111.27584648 C-136.01636553 89.66952954 -135.82207005 70.65511487 -120.35546875 53.80859375 C-105.1469536 39.58294182 -88.52317575 38.09131903 -68.66796875 38.37109375 C-66.79558372 38.38617271 -64.9231869 38.39985541 -63.05078125 38.41210938 C-58.50621441 38.44484936 -53.96222476 38.4964528 -49.41796875 38.55859375 C-49.46147461 36.61871582 -49.46147461 36.61871582 -49.50585938 34.63964844 C-49.52932073 32.91993095 -49.55206945 31.20020364 -49.57421875 29.48046875 C-49.60563965 28.20598877 -49.60563965 28.20598877 -49.63769531 26.90576172 C-49.72111974 18.25464824 -47.26471748 11.97791933 -41.5546875 5.41796875 C-30.33085254 -5.28853514 -13.53267695 -8.06713698 0 0 Z M-26.41796875 22.55859375 C-27.63239082 24.98743789 -27.56420855 26.58147336 -27.5949707 29.29614258 C-27.60780594 30.28089066 -27.62064117 31.26563873 -27.63386536 32.28022766 C-27.64125229 33.34790878 -27.64863922 34.4155899 -27.65625 35.515625 C-27.66432175 36.61073898 -27.67239349 37.70585297 -27.68070984 38.83415222 C-27.69455779 41.15512505 -27.70527675 43.4761183 -27.71313477 45.79711914 C-27.7303483 49.34625858 -27.77422935 52.89446691 -27.81835938 56.44335938 C-27.828486 58.69660772 -27.83700219 60.949864 -27.84375 63.203125 C-27.86125809 64.26473343 -27.87876617 65.32634186 -27.89680481 66.42012024 C-27.89758495 72.36100252 -27.89758495 72.36100252 -25.51635742 77.70581055 C-22.2228859 80.61379838 -19.86142537 80.89160245 -15.45703125 80.8515625 C-12.28662308 80.39604408 -10.59872855 78.80543718 -8.41796875 76.55859375 C-7.20354668 74.12974961 -7.27172895 72.53571414 -7.2409668 69.82104492 C-7.22813156 68.83629684 -7.21529633 67.85154877 -7.20207214 66.83695984 C-7.19468521 65.76927872 -7.18729828 64.7015976 -7.1796875 63.6015625 C-7.17161575 62.50644852 -7.16354401 61.41133453 -7.15522766 60.28303528 C-7.14137971 57.96206245 -7.13066075 55.6410692 -7.12280273 53.32006836 C-7.1055892 49.77092892 -7.06170815 46.22272059 -7.01757812 42.67382812 C-7.0074515 40.42057978 -6.99893531 38.1673235 -6.9921875 35.9140625 C-6.97467941 34.85245407 -6.95717133 33.79084564 -6.93913269 32.69706726 C-6.93835255 26.75618498 -6.93835255 26.75618498 -9.31958008 21.41137695 C-12.6130516 18.50338912 -14.97451213 18.22558505 -19.37890625 18.265625 C-22.54931442 18.72114342 -24.23720895 20.31175032 -26.41796875 22.55859375 Z M186.58203125 23.55859375 C185.64621098 26.36605457 185.44595029 28.11921052 185.42089844 31.02661133 C185.41129089 31.92797318 185.40168335 32.82933502 185.39178467 33.75801086 C185.38753479 34.72989853 185.38328491 35.70178619 185.37890625 36.703125 C185.37320618 37.70566818 185.3675061 38.70821136 185.3616333 39.74113464 C185.35218465 41.86362656 185.34564985 43.98613313 185.34179688 46.10864258 C185.33210013 49.34808101 185.30107877 52.58688259 185.26953125 55.82617188 C185.26300012 57.88931915 185.25775008 59.95247096 185.25390625 62.015625 C185.24155945 62.98143997 185.22921265 63.94725494 185.2164917 64.94233704 C185.23387518 70.21813454 185.52952231 74.04286545 188.58203125 78.55859375 C192.28211288 81.02531484 195.28905203 81.22937175 199.58203125 80.55859375 C202.82600439 78.72504371 204.20704998 77.4179361 205.69604492 74.00561523 C206.82428108 69.61609573 206.88756409 65.54491564 206.8828125 61.03125 C206.88709763 60.12410751 206.89138275 59.21696503 206.89579773 58.28233337 C206.90152192 56.37027824 206.90205543 54.45820133 206.89770508 52.54614258 C206.89454514 49.63389663 206.91802803 46.72266746 206.94335938 43.81054688 C206.94563269 41.94661586 206.94633571 40.08268212 206.9453125 38.21875 C206.95452225 37.35500259 206.96373199 36.49125519 206.97322083 35.60133362 C206.92648665 29.4416035 206.0819629 24.42888564 201.89453125 19.62109375 C195.29461917 16.58870171 190.86011133 17.98412577 186.58203125 23.55859375 Z M-106.16796875 72.37109375 C-117.01871846 87.74298917 -113.41796875 104.71331068 -113.41796875 123.55859375 C20.23203125 123.55859375 153.88203125 123.55859375 291.58203125 123.55859375 C293.70978074 93.19225731 293.70978074 93.19225731 281.39453125 68.93359375 C274.06849917 61.81237547 265.30713636 60.39207879 255.4375 60.4609375 C254.66771317 60.46235245 253.89792633 60.4637674 253.10481262 60.46522522 C250.65967837 60.47079769 248.21463757 60.48334504 245.76953125 60.49609375 C244.10612112 60.50111231 242.44270955 60.5056746 240.77929688 60.50976562 C236.71350597 60.52075809 232.64778442 60.53800365 228.58203125 60.55859375 C228.52362061 61.57832275 228.46520996 62.59805176 228.4050293 63.64868164 C228.32232496 65.00538465 228.23938609 66.36207338 228.15625 67.71875 C228.11850464 68.38861938 228.08075928 69.05848877 228.04187012 69.74865723 C227.38212537 80.28204529 224.47153356 87.97306575 216.765625 95.28125 C210.17257284 100.702204 202.3950994 103.20034311 193.86328125 102.83984375 C185.1034307 101.75986217 177.19113003 98.35159672 171.015625 91.9296875 C163.67054858 82.47975336 164.29080444 72.60773804 163.58203125 60.55859375 C114.41203125 60.55859375 65.24203125 60.55859375 14.58203125 60.55859375 C14.25203125 66.49859375 13.92203125 72.43859375 13.58203125 78.55859375 C10.95197294 87.42286434 7.22419245 93.64421713 -0.85546875 98.37109375 C-9.59435292 102.79879506 -17.96415533 103.88994899 -27.48046875 101.49609375 C-36.40506137 98.46985826 -41.79802953 92.88981835 -46.32421875 84.79296875 C-47.94117419 81.48975979 -48.56373412 78.74158799 -48.734375 75.109375 C-48.77626953 74.26181641 -48.81816406 73.41425781 -48.86132812 72.54101562 C-48.90064453 71.65994141 -48.93996094 70.77886719 -48.98046875 69.87109375 C-49.02365234 68.97841797 -49.06683594 68.08574219 -49.11132812 67.16601562 C-49.21732228 64.96369267 -49.31938926 62.76125902 -49.41796875 60.55859375 C-54.36178371 60.48378047 -59.30526064 60.42968221 -64.24951172 60.39379883 C-65.92730458 60.37882141 -67.60505903 60.35843221 -69.28271484 60.33227539 C-84.36267208 60.10324686 -95.16843703 61.12157267 -106.16796875 72.37109375 Z M-113.41796875 145.55859375 C-113.45921875 185.75671875 -113.50046875 225.95484375 -113.54296875 267.37109375 C-113.56117676 280.06167236 -113.57938477 292.75225098 -113.59814453 305.82739258 C-113.60483358 317.20754188 -113.60483358 317.20754188 -113.6088562 328.58769226 C-113.61071875 333.65472669 -113.6182109 338.72171918 -113.62911987 343.78874207 C-113.64285997 350.25666785 -113.64694694 356.72453283 -113.6441133 363.19247186 C-113.64470565 365.56330848 -113.64865849 367.93414728 -113.65639901 370.30497134 C-113.66639047 373.51493929 -113.66393269 376.72467294 -113.65847778 379.93464661 C-113.66430311 380.85561976 -113.67012844 381.77659292 -113.67613029 382.72547436 C-113.62218259 394.58879399 -111.76916398 404.71785406 -103.4921875 413.6328125 C-95.42126841 421.10820746 -87.24349383 422.71624459 -76.54057312 422.67884827 C-75.64608658 422.67970269 -74.75160004 422.68055712 -73.83000785 422.68143743 C-70.83285921 422.6830845 -67.83576653 422.67758348 -64.83862305 422.67211914 C-62.69012961 422.67183708 -60.54163608 422.67199538 -58.3931427 422.67256165 C-52.55890568 422.67284887 -46.72468917 422.66696421 -40.89045691 422.65998769 C-34.79390043 422.65374171 -28.69734349 422.65314936 -22.6007843 422.65196228 C-11.05534094 422.64885265 0.49009298 422.64064419 12.03553218 422.63061279 C25.17929039 422.61944026 38.32304905 422.61393832 51.46681082 422.60891736 C78.50522288 422.59846129 105.54362653 422.58086894 132.58203125 422.55859375 C132.37544168 421.93929804 132.1688521 421.32000233 131.95600224 420.68194008 C131.68532146 419.87026564 131.41464067 419.05859119 131.13575745 418.22232056 C130.86729287 417.41739985 130.5988283 416.61247913 130.32222843 415.78316689 C118.85775404 381.32807523 118.20018724 348.25488005 134.45703125 315.12109375 C139.9715073 304.33790118 147.30550768 295.35050523 155.58203125 286.55859375 C156.39027344 285.65367187 156.39027344 285.65367187 157.21484375 284.73046875 C172.92228957 267.8390446 197.94222841 256.66601767 220.58203125 253.55859375 C221.31550781 253.44902344 222.04898437 253.33945312 222.8046875 253.2265625 C244.76705513 250.47668341 264.89561763 254.34020215 285.50170898 261.85009766 C287.49457012 262.52880708 289.53962391 263.04799192 291.58203125 263.55859375 C291.58203125 224.61859375 291.58203125 185.67859375 291.58203125 145.55859375 C157.93203125 145.55859375 24.28203125 145.55859375 -113.41796875 145.55859375 Z M174.58203125 298.55859375 C173.30779297 299.71294922 173.30779297 299.71294922 172.0078125 300.890625 C156.35116137 315.7320753 144.65856352 337.54638138 143.42089844 359.40429688 C142.95645192 378.22046433 142.95645192 378.22046433 146.58203125 396.55859375 C146.92234375 397.62464844 147.26265625 398.69070313 147.61328125 399.7890625 C156.56525584 425.10258524 174.68324276 444.65782087 198.53515625 456.69921875 C221.41797116 467.61803519 247.89061328 467.92840856 271.58203125 459.55859375 C296.79407157 449.28197649 316.60548112 430.531591 327.48828125 405.45703125 C336.62208626 381.25244798 336.62960342 354.1064985 325.98828125 330.390625 C314.30614275 306.86409608 295.47717954 287.97738983 270.47265625 279.01171875 C237.30382457 268.10631445 200.40865388 274.60287607 174.58203125 298.55859375 Z " fill="#000000" transform="translate(145.41796875,14.44140625)"/>
<path d="M0 0 C1.62131836 -0.01740234 1.62131836 -0.01740234 3.27539062 -0.03515625 C11.54469882 -0.0050678 19.91102573 0.82469632 26.22607422 6.76782227 C32.80919597 14.68464551 33.34094558 22.92149641 33.1875 32.875 C33.20683594 34.12925781 33.22617188 35.38351562 33.24609375 36.67578125 C33.20123388 45.24401694 31.94235698 52.37281428 26.15527344 58.98217773 C18.38968336 66.02055104 10.21443064 65.89507946 0.25 65.875 C-1.01779297 65.90335937 -2.28558594 65.93171875 -3.59179688 65.9609375 C-11.5626411 65.97744883 -17.86300777 65.12585806 -24.4375 60.375 C-32.31830486 52.26846104 -32.79964174 43.92130077 -32.8125 33.0625 C-32.84923828 31.44698242 -32.84923828 31.44698242 -32.88671875 29.79882812 C-32.91651472 21.59996938 -31.69244632 14.58044536 -26.578125 7.97265625 C-25.95421875 7.46605469 -25.3303125 6.95945312 -24.6875 6.4375 C-24.07390625 5.91285156 -23.4603125 5.38820313 -22.828125 4.84765625 C-15.319466 0.22222415 -8.63097398 -0.09230988 0 0 Z M-10.4375 24.375 C-10.6096221 27.2456466 -10.66973075 30.00752342 -10.625 32.875 C-10.62435547 33.66003906 -10.62371094 34.44507813 -10.62304688 35.25390625 C-10.68975279 39.44842326 -10.68975279 39.44842326 -9.4375 43.375 C-6.29168577 43.40388514 -3.14590531 43.42175923 0 43.4375 C0.89783203 43.44587891 1.79566406 43.45425781 2.72070312 43.46289062 C4.00170898 43.46772461 4.00170898 43.46772461 5.30859375 43.47265625 C6.09935303 43.47789307 6.8901123 43.48312988 7.70483398 43.48852539 C9.57842689 43.57995909 9.57842689 43.57995909 10.5625 42.375 C10.64901611 40.95929877 10.66954904 39.539405 10.66015625 38.12109375 C10.65532227 36.84008789 10.65532227 36.84008789 10.65039062 35.53320312 C10.64201172 34.63537109 10.63363281 33.73753906 10.625 32.8125 C10.62048828 31.91080078 10.61597656 31.00910156 10.61132812 30.08007812 C10.59950225 27.84498686 10.5830222 25.61002563 10.5625 23.375 C7.27896451 21.73323226 3.66730362 22.19045961 0.0625 22.1875 C-0.72253906 22.17525391 -1.50757813 22.16300781 -2.31640625 22.15039062 C-6.85212783 21.94059522 -6.85212783 21.94059522 -10.4375 24.375 Z " fill="#000000" transform="translate(106.4375,265.625)"/>
<path d="M0 0 C1.25425781 -0.01933594 2.50851562 -0.03867188 3.80078125 -0.05859375 C12.36901694 -0.01373388 19.49781428 1.24514302 26.10717773 7.03222656 C33.14555104 14.79781664 33.02007946 22.97306936 33 32.9375 C33.02835937 34.20529297 33.05671875 35.47308594 33.0859375 36.77929688 C33.10244883 44.7501411 32.25085806 51.05050777 27.5 57.625 C19.39346104 65.50580486 11.04630077 65.98714174 0.1875 66 C-0.88951172 66.02449219 -1.96652344 66.04898438 -3.07617188 66.07421875 C-11.27503062 66.10401472 -18.29455464 64.87994632 -24.90234375 59.765625 C-25.40894531 59.14171875 -25.91554688 58.5178125 -26.4375 57.875 C-26.96214844 57.26140625 -27.48679687 56.6478125 -28.02734375 56.015625 C-32.65277585 48.506966 -32.96730988 41.81847398 -32.875 33.1875 C-32.88660156 32.10662109 -32.89820313 31.02574219 -32.91015625 29.91210938 C-32.8800678 21.64280118 -32.05030368 13.27647427 -26.10717773 6.96142578 C-18.19035449 0.37830403 -9.95350359 -0.15344558 0 0 Z M-9.5 22.625 C-11.14176774 25.90853549 -10.68454039 29.52019638 -10.6875 33.125 C-10.69974609 33.91003906 -10.71199219 34.69507813 -10.72460938 35.50390625 C-10.72986254 37.54563726 -10.6222018 39.58692251 -10.5 41.625 C-8.51675559 44.05058939 -8.51675559 44.05058939 -4.65625 43.85546875 C-3.10410572 43.85147524 -1.5519606 43.83670957 0 43.8125 C0.78503906 43.81185547 1.57007813 43.81121094 2.37890625 43.81054688 C6.57342326 43.87725279 6.57342326 43.87725279 10.5 42.625 C10.52888514 39.47918577 10.54675923 36.33340531 10.5625 33.1875 C10.57087891 32.28966797 10.57925781 31.39183594 10.58789062 30.46679688 C10.59111328 29.61279297 10.59433594 28.75878906 10.59765625 27.87890625 C10.60289307 27.08814697 10.60812988 26.2973877 10.61352539 25.48266602 C10.70495909 23.60907311 10.70495909 23.60907311 9.5 22.625 C8.08429877 22.53848389 6.664405 22.51795096 5.24609375 22.52734375 C3.96508789 22.53217773 3.96508789 22.53217773 2.65820312 22.53710938 C1.76037109 22.54548828 0.86253906 22.55386719 -0.0625 22.5625 C-0.96419922 22.56701172 -1.86589844 22.57152344 -2.79492188 22.57617188 C-5.03001314 22.58799775 -7.26497437 22.6044778 -9.5 22.625 Z " fill="#000000" transform="translate(362.5,180.375)"/>
<path d="M0 0 C1.90168945 -0.04253906 1.90168945 -0.04253906 3.84179688 -0.0859375 C11.8126411 -0.10244883 18.11300777 0.74914194 24.6875 5.5 C32.56830486 13.60653896 33.04964174 21.95369923 33.0625 32.8125 C33.08699219 33.88951172 33.11148438 34.96652344 33.13671875 36.07617188 C33.16651472 44.27503062 31.94244632 51.29455464 26.828125 57.90234375 C26.20421875 58.40894531 25.5803125 58.91554687 24.9375 59.4375 C24.32390625 59.96214844 23.7103125 60.48679688 23.078125 61.02734375 C15.569466 65.65277585 8.88097398 65.96730988 0.25 65.875 C-0.83087891 65.88660156 -1.91175781 65.89820313 -3.02539062 65.91015625 C-11.29469882 65.8800678 -19.66102573 65.05030368 -25.97607422 59.10717773 C-32.55919597 51.19035449 -33.09094558 42.95350359 -32.9375 33 C-32.95683594 31.74574219 -32.97617188 30.49148437 -32.99609375 29.19921875 C-32.95123388 20.63098306 -31.69235698 13.50218572 -25.90527344 6.89282227 C-18.13968336 -0.14555104 -9.96443064 -0.02007946 0 0 Z M-10.3125 23.5 C-10.39901611 24.91570123 -10.41954904 26.335595 -10.41015625 27.75390625 C-10.40693359 28.60791016 -10.40371094 29.46191406 -10.40039062 30.34179688 C-10.39201172 31.23962891 -10.38363281 32.13746094 -10.375 33.0625 C-10.37048828 33.96419922 -10.36597656 34.86589844 -10.36132812 35.79492188 C-10.34950225 38.03001314 -10.3330222 40.26497437 -10.3125 42.5 C-7.02896451 44.14176774 -3.41730362 43.68454039 0.1875 43.6875 C0.97253906 43.69974609 1.75757813 43.71199219 2.56640625 43.72460938 C4.60813726 43.72986254 6.64942251 43.6222018 8.6875 43.5 C11.11308939 41.51675559 11.11308939 41.51675559 10.91796875 37.65625 C10.91397524 36.10410572 10.89920957 34.5519606 10.875 33 C10.87435547 32.21496094 10.87371094 31.42992187 10.87304688 30.62109375 C10.93975279 26.42657674 10.93975279 26.42657674 9.6875 22.5 C6.54168577 22.47111486 3.39590531 22.45324077 0.25 22.4375 C-0.64783203 22.42912109 -1.54566406 22.42074219 -2.47070312 22.41210938 C-3.32470703 22.40888672 -4.17871094 22.40566406 -5.05859375 22.40234375 C-6.24473267 22.39448853 -6.24473267 22.39448853 -7.45483398 22.38647461 C-9.32842689 22.29504091 -9.32842689 22.29504091 -10.3125 23.5 Z " fill="#000000" transform="translate(277.3125,180.5)"/>
<path d="M0 0 C1.25425781 -0.01933594 2.50851563 -0.03867188 3.80078125 -0.05859375 C12.36901694 -0.01373388 19.49781428 1.24514302 26.10717773 7.03222656 C33.14555104 14.79781664 33.02007946 22.97306936 33 32.9375 C33.02835937 34.20529297 33.05671875 35.47308594 33.0859375 36.77929688 C33.10244883 44.7501411 32.25085806 51.05050777 27.5 57.625 C19.39346104 65.50580486 11.04630077 65.98714174 0.1875 66 C-0.88951172 66.02449219 -1.96652344 66.04898438 -3.07617188 66.07421875 C-11.27503062 66.10401472 -18.29455464 64.87994632 -24.90234375 59.765625 C-25.40894531 59.14171875 -25.91554688 58.5178125 -26.4375 57.875 C-26.96214844 57.26140625 -27.48679687 56.6478125 -28.02734375 56.015625 C-32.65277585 48.506966 -32.96730988 41.81847398 -32.875 33.1875 C-32.88660156 32.10662109 -32.89820312 31.02574219 -32.91015625 29.91210938 C-32.8800678 21.64280118 -32.05030368 13.27647427 -26.10717773 6.96142578 C-18.19035449 0.37830403 -9.95350359 -0.15344558 0 0 Z M-9.5 22.625 C-11.14176774 25.90853549 -10.68454039 29.52019638 -10.6875 33.125 C-10.69974609 33.91003906 -10.71199219 34.69507813 -10.72460938 35.50390625 C-10.72986254 37.54563726 -10.6222018 39.58692251 -10.5 41.625 C-8.51675559 44.05058939 -8.51675559 44.05058939 -4.65625 43.85546875 C-3.10410572 43.85147524 -1.5519606 43.83670957 0 43.8125 C0.78503906 43.81185547 1.57007813 43.81121094 2.37890625 43.81054688 C6.57342326 43.87725279 6.57342326 43.87725279 10.5 42.625 C10.52888514 39.47918577 10.54675923 36.33340531 10.5625 33.1875 C10.57087891 32.28966797 10.57925781 31.39183594 10.58789062 30.46679688 C10.59111328 29.61279297 10.59433594 28.75878906 10.59765625 27.87890625 C10.60289307 27.08814697 10.60812988 26.2973877 10.61352539 25.48266602 C10.70495909 23.60907311 10.70495909 23.60907311 9.5 22.625 C8.08429877 22.53848389 6.664405 22.51795096 5.24609375 22.52734375 C3.96508789 22.53217773 3.96508789 22.53217773 2.65820312 22.53710938 C1.76037109 22.54548828 0.86253906 22.55386719 -0.0625 22.5625 C-0.96419922 22.56701172 -1.86589844 22.57152344 -2.79492188 22.57617188 C-5.03001314 22.58799775 -7.26497437 22.6044778 -9.5 22.625 Z " fill="#000000" transform="translate(106.5,180.375)"/>
<path d="M0 0 C2.11386458 -0.00436098 4.22561717 -0.04068319 6.33911133 -0.07861328 C15.15119324 -0.15378435 21.1941576 0.39152209 28.05981445 6.30029297 C28.59864258 6.94224609 29.1374707 7.58419922 29.69262695 8.24560547 C30.52407227 9.20080078 30.52407227 9.20080078 31.37231445 10.17529297 C35.83762509 16.95773778 35.15016303 24.51407347 35.13012695 32.30810547 C35.14624023 33.55785156 35.16235352 34.80759766 35.17895508 36.09521484 C35.18361626 44.87221988 34.48266949 50.82107059 28.56762695 57.62060547 C27.75551758 58.58740234 27.75551758 58.58740234 26.92700195 59.57373047 C20.30078367 65.21828678 12.72671114 64.86770144 4.484375 64.81665039 C2.38807958 64.80813776 0.29451372 64.83695764 -1.80151367 64.86865234 C-10.37360722 64.91443411 -16.38840556 64.32633502 -23.1706543 58.72998047 C-23.60764648 58.19888672 -24.04463867 57.66779297 -24.49487305 57.12060547 C-24.94475586 56.59982422 -25.39463867 56.07904297 -25.8581543 55.54248047 C-30.44448888 48.02035059 -30.67406131 41.11646515 -30.61987305 32.49560547 C-30.63985352 31.37541016 -30.65983398 30.25521484 -30.68041992 29.10107422 C-30.6755664 20.7821366 -29.55584773 13.55559195 -24.2175293 6.93310547 C-23.56655273 6.41748047 -22.91557617 5.90185547 -22.24487305 5.37060547 C-21.59647461 4.83435547 -20.94807617 4.29810547 -20.2800293 3.74560547 C-13.91491556 -0.4266851 -7.33308785 -0.00169375 0 0 Z M-7.18237305 22.37060547 C-8.76162147 25.52910231 -8.32553819 28.90711827 -8.30737305 32.37060547 C-8.31124023 33.10794922 -8.31510742 33.84529297 -8.3190918 34.60498047 C-8.39654717 38.61782188 -8.39654717 38.61782188 -7.18237305 42.37060547 C-4.03655881 42.39949061 -0.89077836 42.4173647 2.25512695 42.43310547 C3.15295898 42.44148438 4.05079102 42.44986328 4.97583008 42.45849609 C6.25683594 42.46333008 6.25683594 42.46333008 7.5637207 42.46826172 C8.35447998 42.47349854 9.14523926 42.47873535 9.95996094 42.48413086 C11.83355384 42.57556456 11.83355384 42.57556456 12.81762695 41.37060547 C12.91599905 40.04016922 12.94841288 38.70467203 12.95043945 37.37060547 C12.95172852 36.56623047 12.95301758 35.76185547 12.9543457 34.93310547 C12.94854492 33.66466797 12.94854492 33.66466797 12.94262695 32.37060547 C12.94649414 31.52498047 12.95036133 30.67935547 12.9543457 29.80810547 C12.95241211 28.60154297 12.95241211 28.60154297 12.95043945 27.37060547 C12.94931152 26.62810547 12.94818359 25.88560547 12.94702148 25.12060547 C13.00704911 23.34234735 13.00704911 23.34234735 11.81762695 22.37060547 C10.40192572 22.28408936 8.98203195 22.26355643 7.5637207 22.27294922 C6.28271484 22.2777832 6.28271484 22.2777832 4.97583008 22.28271484 C4.07799805 22.29109375 3.18016602 22.29947266 2.25512695 22.30810547 C1.35342773 22.31261719 0.45172852 22.31712891 -0.47729492 22.32177734 C-2.71238618 22.33360322 -4.94734741 22.35008327 -7.18237305 22.37060547 Z " fill="#000000" transform="translate(104.182373046875,351.62939453125)"/>
<path d="M0 0 C1.12019531 -0.01998047 2.24039063 -0.03996094 3.39453125 -0.06054688 C11.71346886 -0.05569335 18.94001352 1.06402532 25.5625 6.40234375 C26.078125 7.05332031 26.59375 7.70429688 27.125 8.375 C27.66125 9.02339844 28.1975 9.67179687 28.75 10.33984375 C32.92229057 16.70495748 32.49729922 23.28678519 32.49560547 30.61987305 C32.49996645 32.73373763 32.53628866 34.84549021 32.57421875 36.95898438 C32.64938982 45.77106628 32.10408338 51.81403065 26.1953125 58.6796875 C25.55335938 59.21851563 24.91140625 59.75734375 24.25 60.3125 C23.29480469 61.14394531 23.29480469 61.14394531 22.3203125 61.9921875 C15.55343638 66.44724829 8.02649935 65.77006321 0.25 65.75 C-1.61205078 65.77416992 -1.61205078 65.77416992 -3.51171875 65.79882812 C-11.32009526 65.80298594 -17.55400391 65.5272034 -24.08203125 60.859375 C-24.61183594 60.30765625 -25.14164063 59.7559375 -25.6875 59.1875 C-26.50154297 58.37539063 -26.50154297 58.37539063 -27.33203125 57.546875 C-32.45846342 50.53858799 -32.37272903 43.44879331 -32.32104492 35.10424805 C-32.31253229 33.00795263 -32.34135217 30.91438677 -32.37304688 28.81835938 C-32.41882864 20.24626583 -31.83072956 14.23146749 -26.234375 7.44921875 C-25.43773437 6.79373047 -25.43773437 6.79373047 -24.625 6.125 C-24.10421875 5.67511719 -23.5834375 5.22523438 -23.046875 4.76171875 C-15.52474512 0.17538416 -8.62085968 -0.05418826 0 0 Z M-9.875 23.4375 C-9.90388514 26.58331423 -9.92175923 29.72909469 -9.9375 32.875 C-9.94587891 33.77283203 -9.95425781 34.67066406 -9.96289062 35.59570312 C-9.96611328 36.44970703 -9.96933594 37.30371094 -9.97265625 38.18359375 C-9.97789307 38.97435303 -9.98312988 39.7651123 -9.98852539 40.57983398 C-10.07995909 42.45342689 -10.07995909 42.45342689 -8.875 43.4375 C-7.54456375 43.5358721 -6.20906656 43.56828592 -4.875 43.5703125 C-4.070625 43.57160156 -3.26625 43.57289063 -2.4375 43.57421875 C-1.1690625 43.56841797 -1.1690625 43.56841797 0.125 43.5625 C0.970625 43.56636719 1.81625 43.57023437 2.6875 43.57421875 C3.491875 43.57292969 4.29625 43.57164062 5.125 43.5703125 C6.23875 43.56862061 6.23875 43.56862061 7.375 43.56689453 C9.15325811 43.62692216 9.15325811 43.62692216 10.125 42.4375 C10.21151611 41.02179877 10.23204904 39.601905 10.22265625 38.18359375 C10.21782227 36.90258789 10.21782227 36.90258789 10.21289062 35.59570312 C10.20451172 34.69787109 10.19613281 33.80003906 10.1875 32.875 C10.18298828 31.97330078 10.17847656 31.07160156 10.17382812 30.14257812 C10.16200225 27.90748686 10.1455222 25.67252563 10.125 23.4375 C6.96650315 21.85825158 3.5884872 22.29433486 0.125 22.3125 C-0.61234375 22.30863281 -1.3496875 22.30476563 -2.109375 22.30078125 C-6.12221641 22.22332588 -6.12221641 22.22332588 -9.875 23.4375 Z " fill="#000000" transform="translate(191.875,265.5625)"/>
<path d="M0 0 C1.24136719 -0.01611328 2.48273438 -0.03222656 3.76171875 -0.04882812 C11.57009526 -0.05298594 17.80400391 0.2227966 24.33203125 4.890625 C24.86183594 5.44234375 25.39164063 5.9940625 25.9375 6.5625 C26.48019531 7.10390625 27.02289063 7.6453125 27.58203125 8.203125 C32.70846342 15.21141201 32.62272903 22.30120669 32.57104492 30.64575195 C32.56253229 32.74204737 32.59135217 34.83561323 32.62304688 36.93164062 C32.66882864 45.50373417 32.08072956 51.51853251 26.484375 58.30078125 C25.95328125 58.73777344 25.4221875 59.17476562 24.875 59.625 C24.35421875 60.07488281 23.8334375 60.52476562 23.296875 60.98828125 C15.77474512 65.57461584 8.87085968 65.80418826 0.25 65.75 C-0.87019531 65.76998047 -1.99039063 65.78996094 -3.14453125 65.81054688 C-11.46346886 65.80569335 -18.69001352 64.68597468 -25.3125 59.34765625 C-25.828125 58.69667969 -26.34375 58.04570312 -26.875 57.375 C-27.41125 56.72660156 -27.9475 56.07820313 -28.5 55.41015625 C-32.67229057 49.04504252 -32.24729922 42.46321481 -32.24560547 35.13012695 C-32.24996645 33.01626237 -32.28628866 30.90450979 -32.32421875 28.79101562 C-32.39938982 19.97893372 -31.85408338 13.93596935 -25.9453125 7.0703125 C-25.30335938 6.53148437 -24.66140625 5.99265625 -24 5.4375 C-23.36320313 4.88320312 -22.72640625 4.32890625 -22.0703125 3.7578125 C-15.30343638 -0.69724829 -7.77649935 -0.02006321 0 0 Z M-9.875 23.3125 C-9.96151611 24.72820123 -9.98204904 26.148095 -9.97265625 27.56640625 C-9.96943359 28.42041016 -9.96621094 29.27441406 -9.96289062 30.15429688 C-9.95451172 31.05212891 -9.94613281 31.94996094 -9.9375 32.875 C-9.93298828 33.77669922 -9.92847656 34.67839844 -9.92382812 35.60742188 C-9.91200225 37.84251314 -9.8955222 40.07747437 -9.875 42.3125 C-6.71650315 43.89174842 -3.3384872 43.45566514 0.125 43.4375 C0.86234375 43.44136719 1.5996875 43.44523437 2.359375 43.44921875 C6.37221641 43.52667412 6.37221641 43.52667412 10.125 42.3125 C10.15388514 39.16668577 10.17175923 36.02090531 10.1875 32.875 C10.19587891 31.97716797 10.20425781 31.07933594 10.21289062 30.15429688 C10.21611328 29.30029297 10.21933594 28.44628906 10.22265625 27.56640625 C10.22789307 26.77564697 10.23312988 25.9848877 10.23852539 25.17016602 C10.32995909 23.29657311 10.32995909 23.29657311 9.125 22.3125 C7.79456375 22.2141279 6.45906656 22.18171408 5.125 22.1796875 C4.320625 22.17839844 3.51625 22.17710937 2.6875 22.17578125 C1.841875 22.17964844 0.99625 22.18351562 0.125 22.1875 C-0.720625 22.18363281 -1.56625 22.17976563 -2.4375 22.17578125 C-3.241875 22.17707031 -4.04625 22.17835938 -4.875 22.1796875 C-5.98875 22.18137939 -5.98875 22.18137939 -7.125 22.18310547 C-8.90325811 22.12307784 -8.90325811 22.12307784 -9.875 23.3125 Z " fill="#000000" transform="translate(191.875,180.6875)"/>
<path d="M0 0 C2.12175363 0.03220693 4.23589835 0.00018391 6.35742188 -0.03808594 C14.88703906 -0.07053123 21.69553058 0.81795468 28.12304688 6.78222656 C34.60416956 13.76673742 35.07014734 21.51924676 34.90527344 30.65917969 C34.87306651 32.78093332 34.90508952 34.89507804 34.94335938 37.01660156 C34.97580467 45.54621874 34.08731875 52.35471027 28.12304688 58.78222656 C21.13853602 65.26334925 13.38602668 65.72932703 4.24609375 65.56445312 C2.12434012 65.53224619 0.0101954 65.56426921 -2.11132812 65.60253906 C-10.64094531 65.63498435 -17.44943683 64.74649844 -23.87695312 58.78222656 C-30.35807581 51.7977157 -30.82405359 44.04520637 -30.65917969 34.90527344 C-30.62697276 32.78351981 -30.65899577 30.66937509 -30.69726562 28.54785156 C-30.72971092 20.01823438 -29.841225 13.20974286 -23.87695312 6.78222656 C-16.89244227 0.30110387 -9.13993293 -0.16487391 0 0 Z M-7.87695312 22.78222656 C-7.87695312 29.38222656 -7.87695312 35.98222656 -7.87695312 42.78222656 C-1.27695313 42.78222656 5.32304687 42.78222656 12.12304688 42.78222656 C12.12304688 36.18222656 12.12304688 29.58222656 12.12304688 22.78222656 C5.52304688 22.78222656 -1.07695312 22.78222656 -7.87695312 22.78222656 Z " fill="#000000" transform="translate(189.876953125,351.2177734375)"/>
<path d="M0 0 C3.02089981 1.7475743 5.41608883 3.83217766 7 7 C7.91089237 13.6039697 7.91089237 13.6039697 5.88752747 16.70497131 C-0.32073091 23.46616492 -6.80515643 29.94999968 -13.30078125 36.43359375 C-14.58650559 37.71999272 -15.87208153 39.00654001 -17.15751648 40.29322815 C-19.83621965 42.9733976 -22.51670329 45.6517698 -25.19848633 48.32885742 C-28.63967187 51.76431158 -32.07630173 55.20428269 -35.5116396 58.64558315 C-38.15802365 61.29557229 -40.80677421 63.94318564 -43.45625877 66.59007454 C-44.72529734 67.85844548 -45.99359198 69.12756119 -47.26113319 70.39742851 C-49.02495695 72.16378161 -50.7919363 73.92691508 -52.55981445 75.68920898 C-53.08396942 76.21538818 -53.60812439 76.74156738 -54.14816284 77.28369141 C-57.47837158 80.59436301 -59.43250333 82.17299675 -64.125 82.5 C-67.86596558 82.38442357 -69.69468915 81.86959451 -72.4375 79.32421875 C-73.46834717 78.37071533 -73.46834717 78.37071533 -74.52001953 77.39794922 C-79.39285811 72.68629136 -84.23661679 67.94932667 -89.02929688 63.15600586 C-90.88653777 61.30097597 -92.75167204 59.45412582 -94.6171875 57.60742188 C-95.80517559 56.4223641 -96.99269283 55.23683407 -98.1796875 54.05078125 C-98.73486053 53.50279373 -99.29003357 52.95480621 -99.86203003 52.39021301 C-104.86270039 47.35964452 -104.86270039 47.35964452 -106 44 C-105.92002707 38.96170538 -105.80642825 36.97184942 -102.5625 33.0625 C-98.52765524 29.81494203 -96.19853094 29.56678909 -91 30 C-86.809685 32.46703134 -83.44562937 35.314817 -80.0390625 38.765625 C-79.15605469 39.65507812 -78.27304687 40.54453125 -77.36328125 41.4609375 C-76.45964844 42.38132812 -75.55601562 43.30171875 -74.625 44.25 C-73.69816406 45.18585938 -72.77132812 46.12171875 -71.81640625 47.0859375 C-69.53966393 49.38615139 -67.26773829 51.69091445 -65 54 C-59.28293557 49.28702545 -54.06872545 44.17652375 -48.8631382 38.90773773 C-47.36467298 37.3916659 -45.86250606 35.87935023 -44.35929871 34.36798096 C-40.09105963 30.07546336 -35.82867386 25.77716721 -31.57055664 21.47460938 C-28.95372995 18.83098799 -26.33204135 16.1922695 -23.70731163 13.55649567 C-22.71227616 12.55526541 -21.71914051 11.55214329 -20.72797585 10.54708099 C-19.34513818 9.14500321 -17.95554777 7.74959524 -16.56567383 6.35449219 C-15.77848465 5.55984558 -14.99129547 4.76519897 -14.18025208 3.94647217 C-9.92386351 0.14647951 -5.69676509 -1.10436329 0 0 Z " fill="#000000" transform="translate(433,343)"/>
</svg>
